<?xml version="1.0" encoding="UTF-8"?>
<svg version="1.1" viewBox="0 0 903 567.01" xml:space="preserve" xmlns="http://www.w3.org/2000/svg"><g transform="matrix(1.3333 0 0 -1.3333 0 567.01)"><g transform="scale(.1)"><path d="m2199.2 3018.3-41.07-150.56h-333.1l-250.93-997.05c-111.03-439.52-222.83-779.41-335.39-1019.8-159.67-339.08-331.56-573.35-515.58-702.63-139.92-98.891-279.81-148.35-419.77-148.35-91.261 0-168.82 27.422-232.72 82.172-47.086 38.098-70.688 87.527-70.688 148.32 0 48.711 19.379 90.832 58.144 126.6 38.793 35.762 86.332 53.558 142.61 53.558 41.074 0 75.652-12.847 103.81-38.699 28.153-25.84 42.196-55.57 42.196-89.031 0-33.469-15.981-64.609-47.91-93.496-24.305-21.293-36.524-37.281-36.524-47.953 0-13.668 5.383-24.348 15.988-31.969 13.704-10.602 34.985-15.98 63.891-15.98 65.391 0 134.24 20.61 206.46 61.7 72.262 41.062 136.53 102.32 192.76 183.57 56.277 81.402 109.49 198.96 159.72 352.5 21.25 63.949 78.305 274.54 171.11 632l396.95 1544.5h-396.95l31.92 150.56c126.22 0 214.46 8.67 264.65 26.21 50.19 17.48 96.16 50.95 138.02 100.38 41.82 49.37 96.16 141.83 163.12 277.16 89.72 182.53 175.65 323.98 257.81 424.36 112.51 135.34 230.77 236.9 354.75 304.57 123.94 67.66 240.67 101.57 350.2 101.57 115.54 0 208.33-29.35 278.31-87.83 69.95-58.55 104.93-122.04 104.93-190.53 0-53.24-17.47-98.05-52.46-134.65-34.99-36.44-79.84-54.67-134.58-54.67-47.17 0-85.56 13.59-115.24 41.08-29.65 27.33-44.48 60.04-44.48 98.06 0 24.27 9.9 54.29 29.65 90.15 19.75 35.69 29.69 59.6 29.69 71.84 0 21.21-6.87 37.19-20.54 47.87-19.79 15.16-48.69 22.78-86.71 22.78-95.82 0-181.75-30.39-257.78-91.26-101.94-80.58-193.17-206.8-273.79-378.66-41.04-89.77-116.33-312.55-225.85-668.43h335.37" fill="#5fccf5"/><path d="m2358.7 1704.9c80.74-18.79 160.44-28.15 239.11-28.15 125.98 0 222.06 28.37 288.21 85.12 66.13 56.7 99.2 126.85 99.2 210.37 0 54.99-14.99 107.91-44.9 158.74-29.95 50.8-78.67 90.86-146.19 120.06-67.53 29.25-151.08 43.89-250.62 43.89-43.18 0-80.06-0.71-110.69-2.12-30.65-1.37-55.34-3.83-74.12-7.31zm0 676.68c25.73-4.88 55.15-8.51 88.23-10.97 33.05-2.46 69.44-3.63 109.11-3.63 101.63 0 178.05 10.95 229.2 32.89 51.17 21.91 90.34 55.48 117.48 100.78 27.15 45.23 40.73 94.62 40.73 148.25 0 82.83-33.78 153.53-101.3 211.98-67.52 58.47-166.02 87.72-295.51 87.72-69.62 0-132.26-7.68-187.94-22.98zm547.16-56.36c98.14-20.92 171.59-54.32 220.32-100.27 67.51-64.05 101.29-142.37 101.29-234.94 0-70.36-22.3-137.69-66.83-202.06-44.57-64.4-105.65-111.42-183.27-140.97-77.61-29.58-196.14-44.38-355.54-44.38h-668.3v38.62h53.26c59.15 0 101.63 18.8 127.39 56.41 16.01 24.37 24.02 76.19 24.02 155.57v914.73c0 87.72-10.1 143.06-30.28 166.03-27.16 30.63-67.53 45.95-121.13 45.95h-53.26v38.64h611.9c114.16 0 205.71-8.35 274.64-25.05 104.42-25.08 184.12-69.45 239.12-133.15 54.99-63.67 82.49-136.96 82.49-219.82 0-70.97-21.58-134.51-64.74-190.55-43.16-56.06-106.87-97.62-191.08-124.76" fill="#5fccf5"/><path d="m4631.9 3051 32.37-481.36h-32.37c-43.15 144.08-104.77 247.8-184.82 311.16-80.06 63.33-176.13 95.01-288.21 95.01-93.96 0-178.91-23.85-254.77-71.52-75.9-47.69-135.58-123.73-179.08-228.17-43.52-104.43-65.28-234.26-65.28-389.49 0-128.08 20.53-239.11 61.61-333.12 41.07-93.94 102.86-166.01 185.34-216.11 82.5-50.12 176.64-75.2 282.47-75.2 91.89 0 172.97 19.69 243.32 58.99 70.28 39.32 147.55 117.47 231.79 234.44l32.37-20.89c-71-126.03-153.86-218.26-248.52-276.72-94.69-58.46-207.12-87.71-337.26-87.71-234.61 0-416.31 87.04-545.09 261.07-96.08 129.45-144.11 281.9-144.11 457.34 0 141.32 31.68 271.15 95.02 389.49 63.34 118.35 150.53 210.05 261.57 275.16 111.04 65.07 232.35 97.63 363.92 97.63 102.33 0 203.27-25.05 302.83-75.19 29.22-15.31 50.1-22.97 62.64-22.97 18.81 0 35.14 6.62 49.08 19.85 18.08 18.8 30.96 44.9 38.64 78.31h36.54" fill="#5fccf5"/><path d="m6772.5 3018.6v-38.64c-36.9 0-66.82-6.62-89.79-19.83-22.97-13.23-44.91-37.96-65.77-74.15-13.94-24.37-35.89-82.48-65.8-174.37l-394.73-1141.3h-41.77l-322.63 905.33-320.58-905.33h-37.59l-420.82 1175.8c-31.33 87.72-51.17 139.55-59.53 155.57-13.93 26.46-32.88 46.12-56.89 59-24.02 12.87-56.58 19.32-97.63 19.32v38.64h524.18v-38.64h-25.05c-36.9 0-65.13-8.35-84.58-25.06-19.5-16.7-29.25-36.9-29.25-60.56 0-24.38 15.3-80.38 45.96-168.1l278.81-794.67 234.91 675.61-41.74 119.06-33.4 95c-14.63 34.8-30.99 65.42-49.09 91.88-9.09 13.24-20.23 24.38-33.43 33.42-17.4 12.55-34.79 21.57-52.22 27.16-13.21 4.17-34.12 6.26-62.64 6.26v38.64h551.33v-38.64h-37.57c-39.01 0-67.52-8.35-85.62-25.06-18.13-16.7-27.14-39.33-27.14-67.88 0-35.49 15.64-97.47 46.96-185.87l271.48-769.58 269.41 780.04c30.62 86.28 45.98 146.19 45.98 179.6 0 16-5.07 30.96-15.15 44.9-10.11 13.92-22.84 23.66-38.12 29.23-26.49 9.74-60.94 14.62-103.37 14.62v38.64h422.88" fill="#5fccf5"/><path d="m1793.3 1212.8v-176.55h81.82c18.77 0 32.51 4.14 41.24 12.42 8.72 8.28 14.52 24.67 17.39 49.19h12.26v-152.04h-12.26c-0.22 17.441-2.49 30.25-6.79 38.421-4.3 8.161-10.27 14.29-17.89 18.39-7.62 4.07-18.93 6.12-33.95 6.12h-81.82v-141.11c0-22.75 1.44-37.758 4.31-45.051 2.2-5.527 6.84-10.258 13.91-14.238 9.72-5.301 19.88-7.949 30.47-7.949h16.24v-12.25h-192.79v12.25h15.9c18.55 0 32.01 5.398 40.42 16.23 5.3 7.059 7.94 24.07 7.94 51.008v290.18c0 22.73-1.43 37.76-4.3 45.04-2.21 5.52-6.74 10.27-13.58 14.24-9.5 5.3-19.66 7.95-30.48 7.95h-15.9v12.27h334.23l4.3-98.71h-11.59c-5.74 20.96-12.42 36.37-20.04 46.21-7.62 9.82-17.01 16.94-28.15 21.35-11.16 4.43-28.44 6.63-51.85 6.63h-99.04" fill="#100f0d"/><path d="m2238 1212.8v-177.54h98.71c25.62 0 42.73 3.85 51.35 11.59 11.48 10.15 17.88 28.04 19.21 53.66h12.25v-156.35h-12.25c-3.1 21.864-6.19 35.883-9.28 42.071-3.98 7.73-10.49 13.801-19.54 18.221-9.06 4.41-22.97 6.62-41.74 6.62h-98.71v-148.07c0-19.859 0.88-31.949 2.65-36.269 1.77-4.309 4.86-7.719 9.27-10.258 4.42-2.551 12.81-3.813 25.18-3.813h76.19c25.39 0 43.83 1.762 55.32 5.293 11.48 3.539 22.52 10.489 33.12 20.879 13.69 13.68 27.71 34.328 42.07 61.93h13.24l-38.75-112.61h-346.15v12.25h15.89c10.61 0 20.65 2.539 30.15 7.621 7.06 3.539 11.87 8.828 14.41 15.898s3.81 21.531 3.81 43.391v291.82c0 28.5-2.87 46.05-8.61 52.68-7.95 8.83-21.2 13.24-39.76 13.24h-15.89v12.27h346.15l4.97-98.38h-12.92c-4.64 23.61-9.77 39.85-15.4 48.69-5.63 8.83-13.97 15.57-25.01 20.2-8.84 3.31-24.4 4.97-46.71 4.97h-123.22" fill="#100f0d"/><path d="m2714.9 820.59c28.04-6.18 51.56-9.27 70.56-9.27 51.22 0 93.74 18 127.52 53.989 33.79 36 50.69 84.8 50.69 146.41 0 62.06-16.9 110.97-50.69 146.75-33.78 35.77-77.17 53.66-130.17 53.66-19.88 0-42.52-3.21-67.91-9.61zm-128.19-32.449v12.25h16.89c18.99 0 32.46 6.07 40.41 18.218 4.86 7.282 7.29 23.629 7.29 49.02v290.18c0 28.03-3.1 45.59-9.27 52.66-8.62 9.72-21.42 14.57-38.43 14.57h-16.89v12.27h182.85c67.12 0 118.19-7.62 153.19-22.86s63.16-40.64 84.48-76.19c21.3-35.55 31.96-76.63 31.96-123.23 0-62.491-19-114.72-56.97-156.67-42.62-46.808-107.55-70.218-194.78-70.218h-200.73" fill="#100f0d"/><path d="m3271.2 1212.8v-177.54h98.71c25.62 0 42.73 3.85 51.34 11.59 11.48 10.15 17.89 28.04 19.21 53.66h12.26v-156.35h-12.26c-3.09 21.864-6.18 35.883-9.27 42.071-3.98 7.73-10.49 13.801-19.54 18.221-9.06 4.41-22.97 6.62-41.74 6.62h-98.71v-148.07c0-19.859 0.88-31.949 2.65-36.269 1.77-4.309 4.85-7.719 9.27-10.258 4.42-2.551 12.81-3.813 25.18-3.813h76.19c25.39 0 43.82 1.762 55.31 5.293 11.48 3.539 22.53 10.489 33.12 20.879 13.7 13.68 27.72 34.328 42.07 61.93h13.25l-38.75-112.61h-346.15v12.25h15.89c10.61 0 20.65 2.539 30.15 7.621 7.06 3.539 11.87 8.828 14.41 15.898s3.81 21.531 3.81 43.391v291.82c0 28.5-2.87 46.05-8.62 52.68-7.94 8.83-21.19 13.24-39.75 13.24h-15.89v12.27h346.15l4.97-98.38h-12.92c-4.64 23.61-9.77 39.85-15.4 48.69-5.63 8.83-13.97 15.57-25.01 20.2-8.84 3.31-24.4 4.97-46.71 4.97h-123.22" fill="#100f0d"/><path d="m3747.7 1019c4.21 0 7.84-0.05 10.95-0.17 3.07-0.11 5.62-0.17 7.61-0.17 42.84 0 75.15 9.29 96.9 27.84 21.75 18.54 32.62 42.17 32.62 70.87 0 28.06-8.77 50.86-26.33 68.41-17.57 17.56-40.8 26.34-69.72 26.34-12.83 0-30.15-2.1-52.03-6.3zm318.99-230.87h-119.91l-152.04 210.01c-11.25-0.437-20.42-0.668-27.48-0.668-2.88 0-5.96 0.059-9.28 0.168-3.3 0.114-6.74 0.27-10.28 0.5v-130.52c0-28.27 3.1-45.82 9.29-52.668 8.38-9.711 20.96-14.57 37.75-14.57h17.57v-12.25h-192.45v12.25h16.88c19.01 0 32.58 6.179 40.75 18.55 4.63 6.84 6.96 23.071 6.96 48.688v290.18c0 28.26-3.1 45.82-9.28 52.66-8.61 9.72-21.42 14.57-38.43 14.57h-16.88v12.27h163.63c47.69 0 82.85-3.48 105.49-10.43 22.64-6.97 41.85-19.77 57.64-38.43 15.8-18.67 23.69-40.92 23.69-66.76 0-27.61-9-51.55-27.01-71.87-18-20.33-45.86-34.67-83.62-43.06l92.76-128.87c21.19-29.59 39.39-49.231 54.64-58.95 15.23-9.722 35.11-15.902 59.61-18.55v-12.25" fill="#100f0d"/><path d="m4426.3 963.03-76.19 181.52-78.18-181.52zm9.25-24.511h-173.89l-30.48-70.891c-7.5-17.438-11.25-30.469-11.25-39.09 0-6.84 3.26-12.859 9.76-18.051 6.51-5.187 20.61-8.547 42.24-10.097v-12.25h-141.43v12.25c18.75 3.308 30.89 7.621 36.43 12.91 11.25 10.609 23.72 32.14 37.43 64.59l158 369.68h11.6l156.35-373.65c12.57-30.031 24-49.524 34.27-58.461 10.29-8.941 24.57-13.973 42.9-15.07v-12.25h-177.22v12.25c17.9 0.871 29.99 3.859 36.28 8.941 6.29 5.078 9.43 11.258 9.43 18.547 0 9.723-4.4 25.07-13.24 46.043l-27.18 64.598" fill="#100f0d"/><path d="m4996.9 1237.3 4.96-105.33h-12.58c-2.43 18.54-5.73 31.78-9.94 39.73-6.85 12.8-15.95 22.26-27.3 28.33-11.39 6.07-26.34 9.1-44.91 9.1h-63.27v-343.16c0-27.621 2.99-44.839 8.95-51.679 8.4-9.27 21.31-13.91 38.76-13.91h15.56v-12.25h-190.46v12.25h15.9c18.99 0 32.47 5.738 40.42 17.218 4.86 7.071 7.29 23.192 7.29 48.371v343.16h-54c-20.99 0-35.89-1.53-44.71-4.63-11.5-4.2-21.33-12.25-29.51-24.18-8.17-11.93-13.01-28.05-14.57-48.35h-12.57l5.29 105.33h366.69" fill="#100f0d"/><path d="m5292.6 800.39v-12.25h-192.46v12.25h15.9c18.54 0 32.02 5.398 40.42 16.23 5.29 7.059 7.95 24.07 7.95 51.008v290.18c0 22.73-1.44 37.76-4.32 45.04-2.21 5.52-6.73 10.27-13.57 14.24-9.73 5.3-19.87 7.95-30.48 7.95h-15.9v12.27h192.46v-12.27h-16.24c-18.34 0-31.69-5.41-40.08-16.23-5.51-7.06-8.29-24.06-8.29-51v-290.18c0-22.75 1.45-37.758 4.32-45.051 2.2-5.527 6.85-10.258 13.92-14.238 9.47-5.301 19.53-7.949 30.13-7.949h16.24" fill="#100f0d"/><path d="m5615.4 1223.4c-40.18 0-72.43-14.92-96.72-44.73-30.26-37.1-45.38-91.42-45.38-162.97 0-73.321 15.68-129.74 47.04-169.26 24.08-30.05 55.86-45.05 95.39-45.05 42.19 0 77.03 16.437 104.51 49.347 27.51 32.903 41.24 84.801 41.24 155.69 0 76.84-15.13 134.15-45.38 171.91-24.3 30.03-57.84 45.06-100.7 45.06zm6.31 24.17c58.29 0 108.81-22.14 151.53-66.41 42.75-44.28 64.1-99.54 64.1-165.8 0-68.231-21.53-124.87-64.58-169.92-43.08-45.05-95.2-67.582-156.37-67.582-61.83 0-113.77 21.981-155.85 65.922-42.06 43.938-63.09 100.81-63.09 170.6 0 71.32 24.29 129.51 72.88 174.57 42.17 39.08 92.62 58.62 151.38 58.62" fill="#100f0d"/><path d="m5919 1237.3h121.89l274.61-336.89v259.03c0 27.61-3.1 44.83-9.27 51.68-8.18 9.27-21.09 13.91-38.76 13.91h-15.58v12.27h156.37v-12.27h-15.91c-19 0-32.46-5.74-40.41-17.22-4.85-7.07-7.3-23.18-7.3-48.37v-378.61h-11.91l-296.15 361.73v-276.59c0-27.621 2.99-44.839 8.94-51.679 8.4-9.27 21.31-13.91 38.76-13.91h15.9v-12.25h-156.34v12.25h15.58c19.2 0 32.77 5.738 40.72 17.218 4.85 7.071 7.29 23.192 7.29 48.371v312.36c-13.02 15.24-22.9 25.29-29.63 30.14-6.76 4.86-16.63 9.39-29.66 13.58-6.4 1.99-16.12 2.98-29.14 2.98v12.27" fill="#100f0d"/><path d="m1606 395.78c0 20.539-5.03 36.278-15.07 47.207-10.05 10.934-23.03 16.403-38.93 16.403-32.46 0-62.33-23.25-89.6-69.731-27.27-46.488-40.91-92.711-40.91-138.63 0-20.98 5.3-37.16 15.91-48.531 10.59-11.371 23.95-17.051 40.07-17.051 31.14 0 60.34 23.121 87.62 69.391 27.27 46.262 40.91 93.25 40.91 140.94zm54.99-22.863c0-33.109-8.78-65.906-26.34-98.379-17.56-32.449-42.02-58.187-73.38-77.16-31.35-19.008-61.82-28.5-91.41-28.5-30.26 0-54.94 9.66-74.04 28.98-19.1 19.321-28.65 44.34-28.65 75.032 0 32.461 9.32 65.027 27.99 97.718 18.66 32.68 43.61 58.512 74.86 77.52 31.25 18.992 61.44 28.473 90.6 28.473 29.14 0 53.16-9.602 72.04-28.801 18.88-19.223 28.33-44.172 28.33-74.883" fill="#100f0d"/><path d="m1895.4 468.66-5.96-21.859h-48.36l-36.44-144.76c-16.12-63.809-32.35-113.17-48.69-148.06-23.19-49.25-48.15-83.25-74.86-102.03-20.32-14.348-40.63-21.539-60.95-21.539-13.25 0-24.51 3.9804-33.79 11.941-6.84 5.5078-10.27 12.688-10.27 21.527 0 7.0703 2.82 13.203 8.45 18.383 5.63 5.1875 12.54 7.7891 20.7 7.7891 5.97 0 10.99-1.8711 15.07-5.6406 4.09-3.75 6.13-8.0508 6.13-12.91 0-4.8711-2.32-9.3906-6.96-13.59-3.52-3.0782-5.29-5.3985-5.29-6.9493 0-1.9804 0.77-3.539 2.32-4.6406 1.98-1.539 5.08-2.3086 9.27-2.3086 9.49 0 19.49 2.9766 29.97 8.9375 10.5 5.961 19.83 14.852 28 26.66 8.17 11.82 15.89 28.879 23.18 51.172 3.09 9.289 11.38 39.879 24.85 91.758l57.64 224.26h-57.64l4.64 21.859c18.32 0 31.13 1.27 38.42 3.801 7.29 2.539 13.96 7.41 20.04 14.578 6.07 7.172 13.96 20.602 23.69 40.25 13.02 26.5 25.5 47.031 37.43 61.621 16.33 19.641 33.5 34.379 51.51 44.219 17.99 9.812 34.94 14.73 50.84 14.73 16.78 0 30.26-4.25 40.41-12.75 10.16-8.5 15.24-17.73 15.24-27.66 0-7.73-2.54-14.238-7.62-19.539s-11.59-7.949-19.54-7.949c-6.85 0-12.42 1.988-16.73 5.961-4.31 3.969-6.46 8.719-6.46 14.25 0 3.519 1.43 7.879 4.31 13.066 2.87 5.203 4.3 8.684 4.3 10.434 0 3.109-0.99 5.418-2.98 6.976-2.87 2.192-7.07 3.313-12.58 3.313-13.92 0-26.4-4.43-37.44-13.262-14.8-11.699-28.04-30.027-39.74-54.988-5.97-13.02-16.9-45.383-32.8-97.051h48.69" fill="#100f0d"/><path d="m2321 209.29c25.62-5.961 50.9-8.937 75.86-8.937 39.96 0 70.44 9 91.43 27 20.97 17.988 31.47 40.238 31.47 66.738 0 17.449-4.76 34.23-14.25 50.359-9.5 16.11-24.96 28.801-46.38 38.09-21.42 9.27-47.91 13.91-79.49 13.91-13.7 0-25.4-0.23-35.12-0.668-9.72-0.453-17.55-1.211-23.52-2.312zm0 214.65c8.17-1.55 17.51-2.703 28-3.48 10.48-0.77 22.02-1.16 34.61-1.16 32.24 0 56.48 3.48 72.71 10.429 16.23 6.969 28.65 17.629 37.27 31.969 8.61 14.36 12.91 30.031 12.91 47.039 0 26.282-10.71 48.692-32.13 67.242-21.42 18.551-52.66 27.829-93.74 27.829-22.09 0-41.96-2.43-59.63-7.278zm173.58-17.882c31.14-6.629 54.43-17.231 69.89-31.809 21.42-20.309 32.13-45.16 32.13-74.52 0-22.32-7.07-43.671-21.2-64.089-14.13-20.442-33.51-35.34-58.14-44.731-24.62-9.39-62.22-14.078-112.78-14.078h-212v12.258h16.89c18.77 0 32.24 5.961 40.42 17.89 5.07 7.719 7.62 24.18 7.62 49.348v290.18c0 27.808-3.21 45.379-9.61 52.656-8.61 9.711-21.42 14.57-38.43 14.57h-16.89v12.262h194.11c36.22 0 65.26-2.641 87.12-7.949 33.13-7.949 58.41-22.02 75.85-42.242 17.45-20.2 26.18-43.438 26.18-69.719 0-22.52-6.85-42.68-20.55-60.449-13.69-17.782-33.89-30.981-60.61-39.582" fill="#100f0d"/><path d="m3106.6 636.27 10.26-152.7h-10.26c-13.7 45.7-33.24 78.621-58.63 98.711-25.4 20.098-55.88 30.129-91.43 30.129-29.81 0-56.76-7.551-80.82-22.68-24.07-15.128-43.01-39.25-56.81-72.378-13.81-33.122-20.71-74.313-20.71-123.55 0-40.641 6.52-75.86 19.55-105.66 13.03-29.821 32.63-52.672 58.8-68.582 26.16-15.899 56.03-23.848 89.6-23.848 29.15 0 54.87 6.238 77.17 18.719 22.31 12.48 46.83 37.261 73.54 74.371l10.27-6.641c-22.52-39.961-48.81-69.219-78.83-87.769-30.04-18.563-65.7-27.832-107-27.832-74.42 0-132.06 27.601-172.91 82.82-30.47 41.07-45.71 89.43-45.71 145.08 0 44.828 10.05 86.008 30.15 123.55 20.09 37.539 47.75 66.629 82.97 87.289 35.22 20.648 73.71 30.969 115.44 30.969 32.47 0 64.48-7.95 96.06-23.86 9.28-4.851 15.9-7.281 19.88-7.281 5.96 0 11.14 2.101 15.57 6.301 5.74 5.949 9.82 14.242 12.25 24.84h11.6" fill="#100f0d"/><path d="m3947.2 626v-12.262c-11.72 0-21.19-2.097-28.48-6.289-7.31-4.199-14.26-12.031-20.88-23.508-4.42-7.742-11.37-26.171-20.87-55.332l-125.22-362.05h-13.24l-102.35 287.19-101.7-287.19h-11.92l-133.5 372.99c-9.95 27.82-16.24 44.269-18.87 49.359-4.43 8.379-10.43 14.621-18.05 18.711-7.62 4.07-17.96 6.117-30.99 6.117v12.262h166.29v-12.262h-7.96c-11.69 0-20.64-2.636-26.81-7.949-6.18-5.289-9.28-11.711-9.28-19.211 0-7.726 4.84-25.5 14.57-53.328l88.43-252.07 74.56 214.31-13.27 37.762-10.58 30.141c-4.66 11.05-9.84 20.757-15.58 29.16-2.88 4.179-6.4 7.719-10.61 10.597-5.51 3.973-11.03 6.84-16.57 8.614-4.18 1.32-10.8 1.976-19.86 1.976v12.262h174.9v-12.262h-11.91c-12.39 0-21.44-2.636-27.18-7.949-5.73-5.289-8.61-12.48-8.61-21.519 0-11.27 4.98-30.918 14.9-58.969l86.13-244.12 85.47 247.43c9.7 27.391 14.57 46.371 14.57 56.993 0 5.07-1.61 9.816-4.81 14.238-3.21 4.398-7.24 7.5-12.08 9.262-8.4 3.089-19.34 4.636-32.81 4.636v12.262h134.17" fill="#100f0d"/><path d="m4156.4 407.71c4.19 0 7.84-0.063 10.93-0.172s5.64-0.16 7.62-0.16c42.85 0 75.14 9.269 96.89 27.832 21.75 18.539 32.62 42.168 32.62 70.879 0 28.039-8.77 50.851-26.33 68.398-17.54 17.563-40.8 26.34-69.73 26.34-12.79 0-30.13-2.098-52-6.297zm319-230.88h-119.91l-152.05 210.02c-11.27-0.454-20.44-0.672-27.5-0.672-2.86 0-5.95 0.05-9.25 0.172-3.32 0.109-6.76 0.269-10.29 0.5v-130.52c0-28.269 3.09-45.816 9.29-52.668 8.39-9.719 20.97-14.57 37.75-14.57h17.55v-12.258h-192.44v12.258h16.9c18.98 0 32.55 6.18 40.73 18.551 4.65 6.847 6.95 23.07 6.95 48.687v290.18c0 28.258-3.1 45.816-9.28 52.656-8.59 9.711-21.41 14.57-38.4 14.57h-16.9v12.262h163.62c47.71 0 82.88-3.48 105.51-10.43 22.64-6.961 41.84-19.769 57.63-38.422 15.79-18.668 23.7-40.918 23.7-66.757 0-27.602-9.02-51.563-27-71.871-18-20.321-45.89-34.68-83.64-43.059l92.75-128.87c21.19-29.59 39.41-49.238 54.66-58.949 15.23-9.731 35.09-15.903 59.62-18.551v-12.258" fill="#100f0d"/><path d="m4743.2 189.09v-12.258h-192.44v12.258h15.87c18.56 0 32.03 5.398 40.42 16.23 5.3 7.059 7.95 24.071 7.95 51.008v290.18c0 22.726-1.43 37.758-4.29 45.047-2.22 5.511-6.76 10.261-13.6 14.23-9.7 5.313-19.87 7.949-30.48 7.949h-15.87v12.262h192.44v-12.262h-16.24c-18.31 0-31.69-5.41-40.06-16.226-5.54-7.071-8.29-24.063-8.29-51v-290.18c0-22.738 1.42-37.758 4.3-45.047 2.21-5.531 6.84-10.261 13.91-14.242 9.5-5.301 19.55-7.949 30.14-7.949h16.24" fill="#100f0d"/><path d="m5216.7 626 4.96-105.33h-12.57c-2.44 18.547-5.74 31.789-9.95 39.738-6.84 12.801-15.94 22.25-27.3 28.328-11.39 6.071-26.34 9.102-44.89 9.102h-63.28v-343.16c0-27.621 2.98-44.828 8.94-51.68 8.4-9.27 21.31-13.91 38.76-13.91h15.58v-12.258h-190.47v12.258h15.9c18.98 0 32.47 5.738 40.42 17.219 4.85 7.062 7.28 23.179 7.28 48.371v343.16h-53.99c-21 0-35.9-1.539-44.72-4.629-11.49-4.199-21.33-12.25-29.5-24.18-8.18-11.929-13.02-28.051-14.57-48.359h-12.58l5.29 105.33h366.69" fill="#100f0d"/><path d="m5444.8 601.49v-177.55h98.71c25.6 0 42.72 3.868 51.34 11.598 11.47 10.152 17.9 28.039 19.21 53.66h12.26v-156.35h-12.26c-3.09 21.859-6.19 35.878-9.26 42.058-4 7.738-10.5 13.801-19.56 18.231-9.05 4.41-22.97 6.621-41.73 6.621h-98.71v-148.07c0-19.859 0.87-31.961 2.64-36.273 1.77-4.297 4.85-7.719 9.28-10.258 4.41-2.551 12.8-3.808 25.18-3.808h76.19c25.38 0 43.83 1.757 55.3 5.289 11.5 3.539 22.52 10.488 33.13 20.871 13.69 13.687 27.71 34.34 42.08 61.937h13.25l-38.76-112.62h-346.16v12.258h15.9c10.6 0 20.66 2.531 30.14 7.621 7.06 3.527 11.87 8.828 14.42 15.898 2.53 7.071 3.8 21.532 3.8 43.391v291.82c0 28.489-2.88 46.051-8.61 52.68-7.95 8.832-21.2 13.238-39.75 13.238h-15.9v12.262h346.16l4.96-98.371h-12.91c-4.63 23.609-9.78 39.851-15.42 48.68-5.62 8.832-13.95 15.582-25 20.222-8.84 3.309-24.41 4.957-46.71 4.957h-123.21" fill="#100f0d"/><path d="m5921.3 407.71c4.21 0 7.84-0.063 10.94-0.172 3.09-0.109 5.63-0.16 7.63-0.16 42.83 0 75.14 9.269 96.89 27.832 21.75 18.539 32.62 42.168 32.62 70.879 0 28.039-8.77 50.851-26.33 68.398-17.57 17.563-40.8 26.34-69.73 26.34-12.82 0-30.13-2.098-52.02-6.297zm319-230.88h-119.91l-152.05 210.02c-11.25-0.454-20.42-0.672-27.48-0.672-2.88 0-5.95 0.05-9.28 0.172-3.3 0.109-6.73 0.269-10.28 0.5v-130.52c0-28.269 3.11-45.816 9.28-52.668 8.4-9.719 20.98-14.57 37.76-14.57h17.57v-12.258h-192.46v12.258h16.9c18.98 0 32.57 6.18 40.75 18.551 4.63 6.847 6.95 23.07 6.95 48.687v290.18c0 28.258-3.1 45.816-9.28 52.656-8.61 9.711-21.41 14.57-38.42 14.57h-16.9v12.262h163.64c47.69 0 82.85-3.48 105.49-10.43 22.64-6.961 41.86-19.769 57.65-38.422 15.79-18.668 23.68-40.918 23.68-66.757 0-27.602-8.99-51.563-27-71.871-18.01-20.321-45.87-34.68-83.63-43.059l92.76-128.87c21.19-29.59 39.39-49.238 54.63-58.949 15.24-9.731 35.13-15.903 59.63-18.551v-12.258" fill="#100f0d"/><path d="m6609.8 636.27v-155.35h-12.25c-3.98 29.808-11.09 53.539-21.37 71.207-10.25 17.68-24.89 31.691-43.87 42.07-19.01 10.371-38.64 15.571-58.98 15.571-22.96 0-41.95-7.008-56.96-21.032-15.02-14.027-22.53-29.976-22.53-47.867 0-13.691 4.75-26.172 14.24-37.43 13.69-16.562 46.27-38.652 97.71-66.242 41.96-22.539 70.61-39.82 85.96-51.847 15.35-12.043 27.18-26.231 35.46-42.563 8.26-16.348 12.4-33.457 12.4-51.34 0-34.019-13.17-63.328-39.58-87.949-26.37-24.629-60.35-36.941-101.85-36.941-13.02 0-25.3 0.992-36.76 2.98-6.85 1.121-21.05 5.141-42.57 12.102-21.53 6.961-35.18 10.429-40.91 10.429-5.53 0-9.9-1.66-13.08-4.968-3.22-3.321-5.59-10.153-7.14-20.543h-12.25v154.03h12.25c5.76-32.25 13.48-56.371 23.19-72.379 9.72-16.012 24.58-29.313 44.56-39.91 19.97-10.59 41.91-15.891 65.75-15.891 27.6 0 49.42 7.281 65.43 21.852 16.01 14.566 24.01 31.808 24.01 51.679 0 11.047-3.04 22.2-9.1 33.457-6.08 11.262-15.53 21.743-28.33 31.454-8.62 6.636-32.14 20.707-70.56 42.238-38.43 21.539-65.73 38.699-81.97 51.512-16.23 12.808-28.55 26.949-36.95 42.398-8.38 15.449-12.58 32.461-12.58 51.012 0 32.25 12.37 60.008 37.11 83.308 24.71 23.301 56.19 34.95 94.39 34.95 23.85 0 49.14-5.852 75.85-17.559 12.38-5.512 21.08-8.281 26.18-8.281 5.73 0 10.43 1.711 14.08 5.14 3.64 3.43 6.56 10.321 8.77 20.7h12.25" fill="#100f0d"/></g></g></svg>
